<svg xmlns:mydata="http://www.w3.org/2000/svg" xmlns="http://www.w3.org/2000/svg" xmlns:xlink="http://www.w3.org/1999/xlink" mydata:contrastcolor="ffffff" mydata:template="Contrast" mydata:presentation="2.5" mydata:layouttype="undefined" mydata:specialfontid="undefined" mydata:id1="285" mydata:id2="008" mydata:companyname="Colégio St. Isaac" mydata:companytagline="Para vida toda!" version="1.1" viewBox="0 0 550 470"><g fill="none" fill-rule="none" stroke="none" stroke-width="1" stroke-linecap="butt" stroke-linejoin="miter" stroke-miterlimit="10" stroke-dasharray="" stroke-dashoffset="0" font-family="none" font-weight="none" font-size="none" text-anchor="none" style="mix-blend-mode: normal"><g data-paper-data="{&quot;isGlobalGroup&quot;:true,&quot;bounds&quot;:{&quot;x&quot;:109.64093209469627,&quot;y&quot;:115.00000000000003,&quot;width&quot;:330.71813581060746,&quot;height&quot;:240.00000000000003}}"><g data-paper-data="{&quot;isSecondaryText&quot;:true}" fill="#ff7f41" fill-rule="nonzero"><path d="M178.30442,348.02596v3.1956h1.01495c0.21773,0 0.4229,-0.04187 0.6155,-0.12561c0.19261,-0.08374 0.36177,-0.19763 0.50748,-0.34167c0.14571,-0.14404 0.26128,-0.3132 0.34669,-0.50748c0.08542,-0.19428 0.12813,-0.40196 0.12813,-0.62304c0,-0.22443 -0.04271,-0.43378 -0.12813,-0.62807c-0.08542,-0.19428 -0.20098,-0.36344 -0.34669,-0.50748c-0.14571,-0.14404 -0.31571,-0.25709 -0.50999,-0.33916c-0.19428,-0.08207 -0.39861,-0.1231 -0.61299,-0.1231zM177.23922,354.4674v-6.97404c0,-0.07369 0.0134,-0.1432 0.0402,-0.20852c0.0268,-0.06532 0.06448,-0.12226 0.11305,-0.17083c0.04857,-0.04857 0.10468,-0.08625 0.16832,-0.11305c0.06364,-0.0268 0.13399,-0.0402 0.21103,-0.0402h1.54755c0.24118,0 0.47482,0.03182 0.70092,0.09547c0.2261,0.06364 0.43797,0.15409 0.6356,0.27132c0.19763,0.11724 0.37851,0.25709 0.54265,0.41955c0.16413,0.16246 0.30398,0.34251 0.41955,0.54014c0.11556,0.19763 0.20601,0.4095 0.27132,0.6356c0.06532,0.2261 0.09798,0.45974 0.09798,0.70092c0,0.73023 -0.26295,1.3583 -0.78885,1.8842c-0.5192,0.5192 -1.14559,0.7788 -1.87917,0.7788h-1.01495v2.18064c0,0.14739 -0.05192,0.273 -0.15576,0.37684c-0.10384,0.10384 -0.22945,0.15576 -0.37684,0.15576c-0.14739,0 -0.273,-0.05192 -0.37684,-0.15576c-0.10384,-0.10384 -0.15576,-0.22945 -0.15576,-0.37684z" data-paper-data="{&quot;glyphName&quot;:&quot;P&quot;,&quot;glyphIndex&quot;:0,&quot;firstGlyphOfWord&quot;:true,&quot;word&quot;:1}"/><path d="M193.53985,351.22156l-0.87427,-2.25601l-0.87427,2.25601zM189.47501,354.22622l2.6831,-6.9037c0.10719,-0.24118 0.27635,-0.36177 0.50748,-0.36177c0.23783,0 0.40699,0.12059 0.50748,0.36177l2.69315,6.92882c0.0268,0.06699 0.0402,0.13901 0.0402,0.21605c0,0.14739 -0.05192,0.273 -0.15576,0.37684c-0.10384,0.10384 -0.22945,0.15576 -0.37684,0.15576c-0.14739,0 -0.27132,-0.05192 -0.37181,-0.15576c-0.05359,-0.05359 -0.09379,-0.11054 -0.12059,-0.17083l-0.92954,-2.38665h-2.57256l-0.93456,2.38665c-0.0268,0.06029 -0.06699,0.11724 -0.12059,0.17083c-0.10384,0.10384 -0.22945,0.15576 -0.37684,0.15576c-0.14739,0 -0.27216,-0.05192 -0.37433,-0.15576c-0.10217,-0.10384 -0.15325,-0.22945 -0.15325,-0.37684c0,-0.08039 0.01842,-0.16078 0.05527,-0.24118z" data-paper-data="{&quot;glyphName&quot;:&quot;A&quot;,&quot;glyphIndex&quot;:1,&quot;word&quot;:1}"/><path d="M206.26585,348.02596v2.80871h1.40687c0.19428,0 0.37684,-0.03685 0.54767,-0.11054c0.17083,-0.07369 0.31906,-0.17502 0.44467,-0.30398c0.12561,-0.12896 0.22527,-0.27802 0.29896,-0.44718c0.07369,-0.16916 0.11054,-0.3492 0.11054,-0.54014c0,-0.19428 -0.03685,-0.37684 -0.11054,-0.54767c-0.07369,-0.17083 -0.17418,-0.31989 -0.30147,-0.44718c-0.12729,-0.12729 -0.27635,-0.22778 -0.44718,-0.30147c-0.17083,-0.07369 -0.35172,-0.11054 -0.54265,-0.11054zM205.20065,354.4674v-6.97404c0,-0.07369 0.0134,-0.1432 0.0402,-0.20852c0.0268,-0.06532 0.06448,-0.12226 0.11305,-0.17083c0.04857,-0.04857 0.10468,-0.08625 0.16832,-0.11305c0.06364,-0.0268 0.13399,-0.0402 0.21103,-0.0402h1.93947c0.33832,0 0.65738,0.06532 0.95717,0.19596c0.2998,0.13064 0.56107,0.30817 0.78383,0.5326c0.22275,0.22443 0.39945,0.48654 0.53009,0.78634c0.13064,0.2998 0.19596,0.61885 0.19596,0.95717c0,0.22108 -0.02763,0.4363 -0.0829,0.64565c-0.05527,0.20936 -0.13734,0.40699 -0.2462,0.59289c-0.10886,0.18591 -0.24453,0.35842 -0.40699,0.51753c-0.16246,0.15911 -0.35088,0.29896 -0.56526,0.41955l1.60282,2.56753c0.05694,0.09379 0.08542,0.19093 0.08542,0.29142c0,0.07704 -0.0134,0.14739 -0.0402,0.21103c-0.0268,0.06364 -0.06448,0.11975 -0.11305,0.16832c-0.04857,0.04857 -0.10552,0.08625 -0.17083,0.11305c-0.06532,0.0268 -0.13482,0.0402 -0.20852,0.0402c-0.18758,0 -0.33999,-0.08709 -0.45723,-0.26128l-1.77366,-2.83886h-1.49731v2.56753c0,0.14739 -0.05192,0.273 -0.15576,0.37684c-0.10384,0.10384 -0.22945,0.15576 -0.37684,0.15576c-0.14739,0 -0.273,-0.05192 -0.37684,-0.15576c-0.10384,-0.10384 -0.15576,-0.22945 -0.15576,-0.37684z" data-paper-data="{&quot;glyphName&quot;:&quot;R&quot;,&quot;glyphIndex&quot;:2,&quot;word&quot;:1}"/><path d="M223.89756,351.22156l-0.87427,-2.25601l-0.87427,2.25601zM219.83272,354.22622l2.6831,-6.9037c0.10719,-0.24118 0.27635,-0.36177 0.50748,-0.36177c0.23783,0 0.40699,0.12059 0.50748,0.36177l2.69315,6.92882c0.0268,0.06699 0.0402,0.13901 0.0402,0.21605c0,0.14739 -0.05192,0.273 -0.15576,0.37684c-0.10384,0.10384 -0.22945,0.15576 -0.37684,0.15576c-0.14739,0 -0.27132,-0.05192 -0.37181,-0.15576c-0.05359,-0.05359 -0.09379,-0.11054 -0.12059,-0.17083l-0.92954,-2.38665h-2.57256l-0.93456,2.38665c-0.0268,0.06029 -0.06699,0.11724 -0.12059,0.17083c-0.10384,0.10384 -0.22945,0.15576 -0.37684,0.15576c-0.14739,0 -0.27216,-0.05192 -0.37433,-0.15576c-0.10217,-0.10384 -0.15325,-0.22945 -0.15325,-0.37684c0,-0.08039 0.01842,-0.16078 0.05527,-0.24118z" data-paper-data="{&quot;glyphName&quot;:&quot;A&quot;,&quot;glyphIndex&quot;:3,&quot;lastGlyphOfWord&quot;:true,&quot;word&quot;:1}"/><path d="M248.16872,355c-0.23448,0 -0.39694,-0.11221 -0.48738,-0.33664l-2.69817,-6.89867c-0.0402,-0.10384 -0.06029,-0.19428 -0.06029,-0.27132c0,-0.07369 0.0134,-0.1432 0.0402,-0.20852c0.0268,-0.06532 0.06448,-0.12226 0.11305,-0.17083c0.04857,-0.04857 0.10468,-0.08625 0.16832,-0.11305c0.06364,-0.0268 0.13399,-0.0402 0.21103,-0.0402c0.23448,0 0.39861,0.10552 0.4924,0.31655l2.22084,5.71289l2.22084,-5.71289c0.08039,-0.21103 0.24453,-0.31655 0.4924,-0.31655c0.07369,0 0.1432,0.0134 0.20852,0.0402c0.06532,0.0268 0.12226,0.06448 0.17083,0.11305c0.04857,0.04857 0.08625,0.10552 0.11305,0.17083c0.0268,0.06532 0.0402,0.13482 0.0402,0.20852c0,0.08709 -0.0201,0.17753 -0.06029,0.27132l-2.69817,6.89867c-0.09044,0.22443 -0.2529,0.33664 -0.48738,0.33664z" data-paper-data="{&quot;glyphName&quot;:&quot;V&quot;,&quot;glyphIndex&quot;:4,&quot;firstGlyphOfWord&quot;:true,&quot;word&quot;:2}"/><path d="M260.82992,354.4674c0,0.14739 -0.05192,0.273 -0.15576,0.37684c-0.10384,0.10384 -0.22945,0.15576 -0.37684,0.15576c-0.14739,0 -0.273,-0.05192 -0.37684,-0.15576c-0.10384,-0.10384 -0.15576,-0.22945 -0.15576,-0.37684v-6.97404c0,-0.14739 0.05192,-0.273 0.15576,-0.37684c0.10384,-0.10384 0.22945,-0.15576 0.37684,-0.15576c0.14739,0 0.273,0.05192 0.37684,0.15576c0.10384,0.10384 0.15576,0.22945 0.15576,0.37684z" data-paper-data="{&quot;glyphName&quot;:&quot;I&quot;,&quot;glyphIndex&quot;:5,&quot;word&quot;:2}"/><path d="M270.95902,353.9348c0.81397,0 1.50903,-0.28807 2.08518,-0.86422c0.29142,-0.29142 0.50915,-0.6088 0.65319,-0.95215c0.14404,-0.34334 0.21605,-0.72269 0.21605,-1.13805c0,-0.81062 -0.28975,-1.50568 -0.86924,-2.08518c-0.5795,-0.5795 -1.27455,-0.86924 -2.08518,-0.86924h-1.01495v5.90884zM270.95902,346.96076c1.1054,0 2.05168,0.39359 2.83886,1.18076c0.39526,0.39526 0.69087,0.82653 0.88683,1.29382c0.19596,0.46728 0.29393,0.98229 0.29393,1.54504c0,1.10875 -0.39359,2.05671 -1.18076,2.84388c-0.78383,0.78383 -1.73011,1.17574 -2.83886,1.17574h-1.54755c-0.07369,0 -0.1432,-0.01424 -0.20852,-0.04271c-0.06532,-0.02847 -0.12226,-0.06616 -0.17083,-0.11305c-0.04857,-0.0469 -0.08709,-0.103 -0.11556,-0.16832c-0.02847,-0.06532 -0.04271,-0.13482 -0.04271,-0.20852v-6.97404c0,-0.07369 0.01424,-0.1432 0.04271,-0.20852c0.02847,-0.06532 0.06699,-0.12143 0.11556,-0.16832c0.04857,-0.0469 0.10552,-0.08458 0.17083,-0.11305c0.06532,-0.02847 0.13482,-0.04271 0.20852,-0.04271z" data-paper-data="{&quot;glyphName&quot;:&quot;D&quot;,&quot;glyphIndex&quot;:6,&quot;word&quot;:2}"/><path d="M288.21651,351.22156l-0.87427,-2.25601l-0.87427,2.25601zM284.15167,354.22622l2.6831,-6.9037c0.10719,-0.24118 0.27635,-0.36177 0.50748,-0.36177c0.23783,0 0.40699,0.12059 0.50748,0.36177l2.69315,6.92882c0.0268,0.06699 0.0402,0.13901 0.0402,0.21605c0,0.14739 -0.05192,0.273 -0.15576,0.37684c-0.10384,0.10384 -0.22945,0.15576 -0.37684,0.15576c-0.14739,0 -0.27132,-0.05192 -0.37181,-0.15576c-0.05359,-0.05359 -0.09379,-0.11054 -0.12059,-0.17083l-0.92954,-2.38665h-2.57256l-0.93456,2.38665c-0.0268,0.06029 -0.06699,0.11724 -0.12059,0.17083c-0.10384,0.10384 -0.22945,0.15576 -0.37684,0.15576c-0.14739,0 -0.27216,-0.05192 -0.37433,-0.15576c-0.10217,-0.10384 -0.15325,-0.22945 -0.15325,-0.37684c0,-0.08039 0.01842,-0.16078 0.05527,-0.24118z" data-paper-data="{&quot;glyphName&quot;:&quot;A&quot;,&quot;glyphIndex&quot;:7,&quot;lastGlyphOfWord&quot;:true,&quot;word&quot;:2}"/><path d="M314.66604,348.02596h-1.98469v6.44144c0,0.14739 -0.05192,0.273 -0.15576,0.37684c-0.10384,0.10384 -0.22945,0.15576 -0.37684,0.15576c-0.14739,0 -0.273,-0.05192 -0.37684,-0.15576c-0.10384,-0.10384 -0.15576,-0.22945 -0.15576,-0.37684v-6.44144h-1.98469c-0.14739,0 -0.273,-0.05192 -0.37684,-0.15576c-0.10384,-0.10384 -0.15576,-0.22945 -0.15576,-0.37684c0,-0.14739 0.05192,-0.273 0.15576,-0.37684c0.10384,-0.10384 0.22945,-0.15576 0.37684,-0.15576h5.03457c0.14739,0 0.273,0.05192 0.37684,0.15576c0.10384,0.10384 0.15576,0.22945 0.15576,0.37684c0,0.14739 -0.05192,0.273 -0.15576,0.37684c-0.10384,0.10384 -0.22945,0.15576 -0.37684,0.15576z" data-paper-data="{&quot;glyphName&quot;:&quot;T&quot;,&quot;glyphIndex&quot;:8,&quot;firstGlyphOfWord&quot;:true,&quot;word&quot;:3}"/><path d="M327.56224,348.02596c-0.41536,0 -0.79471,0.07202 -1.13805,0.21605c-0.34334,0.14404 -0.66073,0.36177 -0.95215,0.65319c-0.29142,0.29142 -0.50831,0.60797 -0.65068,0.94964c-0.14236,0.34167 -0.21354,0.72018 -0.21354,1.13554c0,0.81732 0.28807,1.51406 0.86422,2.0902c0.57615,0.57615 1.27288,0.86422 2.0902,0.86422c0.81732,0 1.51406,-0.28807 2.0902,-0.86422c0.57615,-0.57615 0.86422,-1.27288 0.86422,-2.0902c0,-0.81397 -0.28807,-1.50903 -0.86422,-2.08518c-0.5795,-0.5795 -1.27623,-0.86924 -2.0902,-0.86924zM331.58186,350.98038c0,1.10875 -0.39359,2.05671 -1.18076,2.84388c-0.78383,0.78383 -1.73011,1.17574 -2.83886,1.17574c-1.11209,0 -2.06006,-0.39191 -2.84388,-1.17574c-0.78383,-0.78383 -1.17574,-1.73179 -1.17574,-2.84388c0,-1.10875 0.39191,-2.05503 1.17574,-2.83886c0.78718,-0.78718 1.73514,-1.18076 2.84388,-1.18076c1.1054,0 2.05168,0.39359 2.83886,1.18076c0.39526,0.39526 0.69087,0.82737 0.88683,1.29633c0.19596,0.46896 0.29393,0.98313 0.29393,1.54253z" data-paper-data="{&quot;glyphName&quot;:&quot;O&quot;,&quot;glyphIndex&quot;:9,&quot;word&quot;:3}"/><path d="M343.88994,353.9348c0.81397,0 1.50903,-0.28807 2.08518,-0.86422c0.29142,-0.29142 0.50915,-0.6088 0.65319,-0.95215c0.14404,-0.34334 0.21605,-0.72269 0.21605,-1.13805c0,-0.81062 -0.28975,-1.50568 -0.86924,-2.08518c-0.5795,-0.5795 -1.27455,-0.86924 -2.08518,-0.86924h-1.01495v5.90884zM343.88994,346.96076c1.1054,0 2.05168,0.39359 2.83886,1.18076c0.39526,0.39526 0.69087,0.82653 0.88683,1.29382c0.19596,0.46728 0.29393,0.98229 0.29393,1.54504c0,1.10875 -0.39359,2.05671 -1.18076,2.84388c-0.78383,0.78383 -1.73011,1.17574 -2.83886,1.17574h-1.54755c-0.07369,0 -0.1432,-0.01424 -0.20852,-0.04271c-0.06532,-0.02847 -0.12226,-0.06616 -0.17083,-0.11305c-0.04857,-0.0469 -0.08709,-0.103 -0.11556,-0.16832c-0.02847,-0.06532 -0.04271,-0.13482 -0.04271,-0.20852v-6.97404c0,-0.07369 0.01424,-0.1432 0.04271,-0.20852c0.02847,-0.06532 0.06699,-0.12143 0.11556,-0.16832c0.04857,-0.0469 0.10552,-0.08458 0.17083,-0.11305c0.06532,-0.02847 0.13482,-0.04271 0.20852,-0.04271z" data-paper-data="{&quot;glyphName&quot;:&quot;D&quot;,&quot;glyphIndex&quot;:10,&quot;word&quot;:3}"/><path d="M361.14743,351.22156l-0.87427,-2.25601l-0.87427,2.25601zM357.08259,354.22622l2.6831,-6.9037c0.10719,-0.24118 0.27635,-0.36177 0.50748,-0.36177c0.23783,0 0.40699,0.12059 0.50748,0.36177l2.69315,6.92882c0.0268,0.06699 0.0402,0.13901 0.0402,0.21605c0,0.14739 -0.05192,0.273 -0.15576,0.37684c-0.10384,0.10384 -0.22945,0.15576 -0.37684,0.15576c-0.14739,0 -0.27132,-0.05192 -0.37181,-0.15576c-0.05359,-0.05359 -0.09379,-0.11054 -0.12059,-0.17083l-0.92954,-2.38665h-2.57256l-0.93456,2.38665c-0.0268,0.06029 -0.06699,0.11724 -0.12059,0.17083c-0.10384,0.10384 -0.22945,0.15576 -0.37684,0.15576c-0.14739,0 -0.27216,-0.05192 -0.37433,-0.15576c-0.10217,-0.10384 -0.15325,-0.22945 -0.15325,-0.37684c0,-0.08039 0.01842,-0.16078 0.05527,-0.24118z" data-paper-data="{&quot;glyphName&quot;:&quot;A&quot;,&quot;glyphIndex&quot;:11,&quot;word&quot;:3}"/><path d="M372.76078,354.28652c0,0.10049 -0.01926,0.19428 -0.05778,0.28137c-0.03852,0.08709 -0.09044,0.16246 -0.15576,0.2261c-0.06532,0.06364 -0.14152,0.11389 -0.22862,0.15074c-0.08709,0.03685 -0.17753,0.05527 -0.27132,0.05527c-0.09714,0 -0.18842,-0.01842 -0.27384,-0.05527c-0.08542,-0.03685 -0.16078,-0.08709 -0.2261,-0.15074c-0.06532,-0.06364 -0.11724,-0.13901 -0.15576,-0.2261c-0.03852,-0.08709 -0.05778,-0.18088 -0.05778,-0.28137c0,-0.09714 0.01842,-0.18926 0.05527,-0.27635c0.03685,-0.08709 0.08793,-0.1633 0.15325,-0.22862c0.06532,-0.06532 0.14152,-0.11724 0.22862,-0.15576c0.08709,-0.03852 0.17921,-0.05778 0.27635,-0.05778c0.09714,0 0.18926,0.01926 0.27635,0.05778c0.08709,0.03852 0.1633,0.09044 0.22862,0.15576c0.06532,0.06532 0.1164,0.14152 0.15325,0.22862c0.03685,0.08709 0.05527,0.17921 0.05527,0.27635zM371.52475,347.49336c0,-0.14739 0.04941,-0.27216 0.14822,-0.37433c0.09882,-0.10217 0.22359,-0.15325 0.37433,-0.15325c0.15074,0 0.27551,0.05108 0.37433,0.15325c0.09882,0.10217 0.14822,0.22694 0.14822,0.37433v5.2456c0,0.07034 -0.01424,0.13734 -0.04271,0.20098c-0.02847,0.06364 -0.06616,0.11891 -0.11305,0.16581c-0.0469,0.0469 -0.10217,0.08374 -0.16581,0.11054c-0.06364,0.0268 -0.13064,0.0402 -0.20098,0.0402c-0.07369,0 -0.14236,-0.01424 -0.20601,-0.04271c-0.06364,-0.02847 -0.11891,-0.06616 -0.16581,-0.11305c-0.0469,-0.0469 -0.08374,-0.10133 -0.11054,-0.1633c-0.0268,-0.06197 -0.0402,-0.12813 -0.0402,-0.19847z" data-paper-data="{&quot;glyphName&quot;:&quot;!&quot;,&quot;glyphIndex&quot;:12,&quot;lastGlyphOfWord&quot;:true,&quot;word&quot;:3}"/></g><g data-paper-data="{&quot;isPrimaryText&quot;:true}" fill="#004976" fill-rule="nonzero"><path d="M149.63088,297.00469c0.26151,-0.13075 0.45763,-0.45763 0.58839,-0.65376c0.26151,-0.45763 0.52301,-0.91527 0.71914,-1.3729c0.52301,-1.17677 0.98064,-2.35355 1.3729,-3.53032c0.32688,-0.98064 0.65376,-2.09204 0.39226,-3.13806c-0.26151,-0.98064 -0.71914,-1.89591 -1.56903,-2.54967c-1.56903,-1.3729 -3.92258,-1.24215 -5.75311,-0.71914c-2.22279,0.58839 -4.31483,1.69978 -6.27612,2.87656c-3.33419,2.02666 -6.47225,4.38021 -9.3488,6.92988c-3.72645,3.33419 -7.19139,6.99526 -10.32945,10.85246c-3.59569,4.51096 -6.86451,9.47956 -8.62967,15.03654c-0.84989,2.4843 -1.30753,5.16472 -1.1114,7.77977c0.06538,1.3729 0.32688,2.81118 1.30753,3.92258c1.89591,2.09204 5.09935,1.76516 7.51827,0.98064c3.46494,-1.1114 6.66838,-3.00731 9.67569,-4.9686c3.59569,-2.28817 7.06064,-4.77247 10.52558,-7.32214c3.00731,-2.22279 6.01462,-4.57634 9.02192,-6.73375c0.91527,-0.71914 1.83054,-1.3729 2.81118,-1.96129c0.32688,-0.19613 0.71914,-0.39226 1.04602,-0.65376c0.13075,-0.06538 0.26151,-0.13075 0.45763,-0.26151c0.13075,-0.06538 0.39226,-0.13075 0.45763,-0.26151c-0.13075,0.06538 -0.19613,0.13075 -0.32688,0.19613c0.06538,0 0.06538,-0.06538 0.13075,-0.06538c0.39226,-0.13075 0.58839,-0.52301 0.26151,-0.91527c-0.32688,-0.32688 -0.98064,-0.58839 -1.43828,-0.39226h-0.06538c0.13075,0 0.32688,0 0.45763,0c-0.58839,-0.06538 -1.17677,0.26151 -1.69978,0.52301c-0.45763,0.19613 -0.91527,0.52301 -1.30753,0.78452c-1.24215,0.78452 -2.35355,1.63441 -3.53032,2.4843c-3.13806,2.35355 -6.21074,4.70709 -9.41418,7.06064c-3.39957,2.4843 -6.86451,4.9686 -10.4602,7.19139c-1.63441,0.98064 -3.26881,1.89591 -4.90322,2.68043c-0.39226,0.19613 -0.78452,0.32688 -1.17677,0.52301c0,0 -0.06538,0 -0.13075,0.06538c-0.13075,0.06538 0.19613,-0.13075 0.06538,-0.06538c-0.13075,0.06538 -0.19613,0.13075 -0.26151,0.13075c-0.19613,0.06538 -0.39226,0.13075 -0.58839,0.19613c-0.65376,0.26151 -1.30753,0.45763 -2.02666,0.65376c-0.13075,0 -0.32688,0.06538 -0.45763,0.06538c-0.06538,0.06538 -0.39226,0.06538 0,0c-0.06538,0.06538 -0.19613,0.06538 -0.26151,0.06538c-0.26151,0.06538 -0.58839,0.06538 -0.84989,0.06538c-0.06538,0 -0.13075,0 -0.19613,0c-0.26151,0 0.26151,0 0.06538,0c-0.13075,0 -0.26151,0 -0.45763,0c-0.13075,-0.06538 -0.58839,-0.13075 -0.06538,-0.06538c-0.13075,0 -0.26151,0 -0.32688,-0.06538c-0.06538,0 -0.13075,-0.06538 -0.19613,-0.06538c-0.19613,-0.06538 0.32688,0.13075 0.13075,0.06538c-0.13075,-0.06538 -0.26151,-0.13075 -0.32688,-0.19613c-0.26151,-0.13075 0.19613,0.19613 0.06538,0.06538c-0.06538,-0.06538 -0.06538,-0.06538 -0.13075,-0.06538c-0.13075,-0.13075 -0.45763,-0.39226 -0.13075,-0.13075c-0.06538,-0.06538 -0.13075,-0.13075 -0.19613,-0.19613c-0.06538,-0.13075 -0.32688,-0.45763 -0.13075,-0.19613c-0.13075,-0.19613 -0.26151,-0.39226 -0.39226,-0.65376c0,-0.13075 -0.06538,-0.26151 -0.13075,-0.39226c0,-0.13075 0.06538,0.19613 0.06538,0.06538c0,-0.06538 -0.06538,-0.06538 -0.06538,-0.13075c0,-0.06538 0,-0.13075 -0.06538,-0.19613c-0.06538,-0.45763 -0.13075,-0.84989 -0.13075,-1.30753c-0.06538,-0.58839 -0.06538,-1.24215 -0.06538,-1.83054c0,-0.71914 0.06538,-1.17677 0.13075,-1.83054c0.39226,-2.68043 1.24215,-5.29548 2.41892,-7.7144c2.35355,-5.16472 5.94924,-9.93719 9.74106,-14.18665c1.69978,-1.96129 3.46494,-3.79182 5.29548,-5.55698c0.71914,-0.71914 1.50365,-1.43828 2.28817,-2.09204c0.32688,-0.32688 0.65376,-0.58839 0.98064,-0.84989c0.13075,-0.13075 0.26151,-0.26151 0.45763,-0.39226c0.06538,-0.06538 0.13075,-0.13075 0.19613,-0.19613c-0.19613,0.19613 0.06538,0 0.13075,-0.06538c3.20344,-2.61505 6.66838,-5.16472 10.4602,-6.86451c0.19613,-0.13075 0.45763,-0.26151 0.71914,-0.39226c0.19613,-0.06538 -0.19613,0.13075 0.06538,0c0.06538,0 0.13075,-0.06538 0.13075,-0.06538c0.19613,-0.06538 0.32688,-0.13075 0.45763,-0.13075c0.45763,-0.19613 0.98064,-0.32688 1.43828,-0.45763c0.26151,-0.06538 0.45763,-0.13075 0.71914,-0.19613c0.19613,0 -0.26151,0.06538 -0.06538,0c0.06538,0 0.13075,0 0.19613,0c0.13075,0 0.19613,0 0.32688,0c0.19613,-0.06538 0.45763,-0.06538 0.65376,-0.06538c-0.39226,0 -0.06538,0 0.06538,0c0.06538,0.06538 0.19613,0.06538 0.32688,0.06538c0.32688,0.06538 -0.26151,-0.06538 0,0c0.13075,0 0.19613,0.06538 0.26151,0.06538c0.06538,0 0.06538,0.06538 0.13075,0.06538c0.19613,0.06538 -0.26151,-0.13075 -0.13075,-0.06538c0.13075,0.06538 0.19613,0.13075 0.32688,0.13075c0.19613,0.13075 -0.26151,-0.13075 0,0.06538c0.06538,0.06538 0.13075,0.06538 0.19613,0.13075c0.19613,0.19613 -0.13075,-0.13075 0.06538,0.06538c0.06538,0.06538 0.13075,0.13075 0.19613,0.26151c0.06538,0 0.06538,0.06538 0.13075,0.13075c0.06538,0.13075 -0.13075,-0.19613 -0.06538,-0.06538c0.06538,0.06538 0.13075,0.19613 0.19613,0.26151c0.06538,0.19613 0.19613,0.45763 0.26151,0.65376c0,0.06538 0.06538,0.26151 0,0.06538c0,0.06538 0,0.06538 0.06538,0.13075c0,0.13075 0.06538,0.26151 0.06538,0.39226c0,0.06538 0,0.19613 0,0.26151c0,0.06538 0,0.13075 0,0.13075c0,0.13075 0,-0.13075 0,0.13075c-0.19613,1.43828 -0.78452,2.87656 -1.30753,4.24946c-0.26151,0.65376 -0.58839,1.24215 -0.91527,1.89591c-0.06538,0.13075 0.06538,-0.13075 0,0c-0.06538,0.06538 -0.06538,0.13075 -0.13075,0.13075c0,0.13075 -0.06538,0.19613 -0.13075,0.32688c-0.06538,0.06538 -0.13075,0.13075 -0.19613,0.19613c-0.13075,0.13075 0.19613,-0.06538 0.06538,0c-0.45763,0.19613 -0.26151,0.71914 0.06538,0.98064c0.39226,0.32688 1.04602,0.45763 1.50365,0.19613z" data-paper-data="{&quot;glyphName&quot;:&quot;C&quot;,&quot;glyphIndex&quot;:0,&quot;firstGlyphOfWord&quot;:true,&quot;word&quot;:1}"/><path d="M165.84419,309.81844c-0.52301,0.39226 -1.1114,0.65376 -1.69978,0.98064l-1.96129,0.91527c-1.50365,0.58839 -3.00731,1.1114 -4.57634,1.43828h-0.13075v-0.06538c0.39226,-0.98064 0.65376,-2.02666 0,-2.94193c-0.52301,-0.78452 -1.56903,-1.04602 -2.41892,-0.58839c-0.52301,0.32688 -0.98064,0.91527 -1.17677,1.50365c-0.19613,0.39226 -0.19613,0.91527 -0.19613,1.30753c0,0.58839 0.13075,1.17677 0.52301,1.63441c0.06538,0.06538 0.13075,0.13075 0.19613,0.19613c-0.13075,0.19613 -0.32688,0.39226 -0.52301,0.65376c-0.65376,0.91527 -1.43828,1.76516 -2.15742,2.61505c-0.84989,0.84989 -1.56903,1.56903 -2.61505,2.09204l-0.32688,0.19613c0.19613,-0.13075 -0.13075,0.06538 -0.19613,0.06538c-0.13075,0 -0.19613,0.06538 -0.32688,0.06538c-0.19613,0 -0.52301,0 -0.52301,-0.32688v-0.26151v-0.19613v-0.06538c0,-0.32688 0.13075,-0.65376 0.19613,-0.91527c0.39226,-1.50365 1.24215,-2.87656 2.15742,-4.05333c0.91527,-1.17677 1.89591,-2.22279 3.00731,-3.13806c0.58839,0 0.84989,-0.71914 0.32688,-1.1114c-0.32688,-0.26151 -0.91527,-0.39226 -1.30753,-0.19613c-1.56903,0.91527 -2.87656,2.22279 -3.98795,3.66107c-0.98064,1.3729 -1.89591,2.94193 -2.28817,4.64171c-0.13075,0.52301 -0.19613,1.1114 -0.06538,1.63441c0.13075,0.65376 0.52301,1.1114 1.04602,1.43828c1.1114,0.65376 2.41892,0.39226 3.53032,-0.06538c1.17677,-0.45763 2.15742,-1.3729 3.00731,-2.28817c0.71914,-0.78452 1.3729,-1.56903 2.02666,-2.41892c0.39226,-0.45763 0.71914,-0.91527 1.04602,-1.3729c0.78452,-0.06538 1.63441,-0.26151 2.22279,-0.32688c1.56903,-0.32688 3.07268,-0.84989 4.51096,-1.43828c1.43828,-0.58839 2.87656,-1.24215 4.05333,-2.22279c0.78452,-0.65376 -0.78452,-1.43828 -1.3729,-1.04602zM155.77624,310.53758v0c0,0 0,0 -0.06538,0z" data-paper-data="{&quot;glyphName&quot;:&quot;o&quot;,&quot;glyphIndex&quot;:1,&quot;word&quot;:1}"/><path d="M175.19299,295.30491l-1.1114,1.1114c-2.15742,2.28817 -4.31483,5.09935 -6.14537,7.64902c-2.09204,3.00731 -4.24946,6.603 -5.81849,10.06794c-0.58839,1.3729 -1.24215,2.94193 -1.50365,4.44559c-0.06538,0.32688 -0.06538,0.52301 -0.13075,0.84989v0.26151c-0.06538,0.71914 0.19613,1.56903 0.52301,1.83054c1.43828,0.78452 3.26881,0.13075 4.38021,-0.26151c1.24215,-0.45763 1.89591,-0.91527 2.68043,-1.3729l0.65376,-0.39226c1.83054,-1.17677 3.53032,-2.41892 5.16472,-3.66107l0.98064,-0.71914c0.39226,-0.39226 0.98064,-0.78452 1.43828,-1.17677l1.17677,-0.91527c0.71914,-0.52301 1.43828,-1.24215 2.15742,-1.83054c0.45763,-0.58839 -0.91527,-1.43828 -1.43828,-1.04602c-0.78452,0.65376 -1.63441,1.30753 -2.41892,2.02666c-1.1114,0.98064 -2.28817,1.96129 -3.46494,2.81118c-0.58839,0.39226 -1.1114,0.84989 -1.63441,1.17677c-1.76516,1.24215 -3.07268,2.22279 -5.42623,3.39957c-0.39226,0.19613 -0.58839,0.32688 -1.17677,0.52301c-0.65376,0.32688 -1.76516,0.52301 -1.69978,0.19613v-0.26151c0,-0.32688 0,-0.39226 0.06538,-0.65376c0.19613,-1.56903 0.84989,-3.07268 1.50365,-4.51096l0.84989,-1.83054v0.06538c0.71914,-0.45763 1.56903,-1.17677 2.22279,-1.76516l0.58839,-0.52301c1.50365,-1.30753 3.66107,-3.26881 4.9686,-4.64171c2.15742,-2.28817 4.24946,-4.90322 6.07999,-7.45289l0.39226,-0.58839c0.58839,-0.91527 1.1114,-1.63441 1.83054,-2.94193v-0.06538c0.39226,-0.71914 0.91527,-1.76516 0.52301,-2.4843c-0.39226,-0.45763 -1.17677,-0.91527 -1.83054,-0.78452c0.06538,0 -0.52301,0.26151 -0.71914,0.39226l-0.26151,0.13075l-0.58839,0.45763c-1.56903,1.1114 -2.81118,2.4843 -2.81118,2.4843zM179.44245,293.93201c-0.06538,0.13075 -0.13075,0.19613 -0.13075,0.26151c-0.32688,0.58839 -0.91527,1.56903 -1.3729,2.09204l-0.58839,0.78452c-1.69978,2.61505 -3.20344,4.51096 -5.81849,7.45289c-1.30753,1.43828 -2.81118,2.87656 -4.18408,4.1187l-0.13075,0.06538c1.69978,-2.81118 3.66107,-5.49161 5.75311,-8.10666c1.63441,-2.09204 3.59569,-4.31483 5.68773,-6.07999l0.71914,-0.58839c0,0 0.13075,-0.06538 0.06538,0z" data-paper-data="{&quot;glyphName&quot;:&quot;l&quot;,&quot;glyphIndex&quot;:2,&quot;word&quot;:1}"/><path d="M177.48116,316.29069c1.1114,-0.39226 2.28817,-1.1114 3.20344,-1.76516c0.98064,-0.71914 1.83054,-1.50365 2.4843,-2.41892c0.65376,-0.91527 1.24215,-2.22279 0.19613,-3.07268c-1.24215,-0.91527 -2.94193,-0.26151 -4.05333,0.39226h0.06538c-1.24215,0.71914 -2.35355,1.63441 -3.20344,2.4843c-0.98064,0.91527 -2.02666,2.15742 -2.7458,3.26881c-0.58839,0.98064 -1.24215,2.35355 -0.98064,3.53032c0.39226,1.24215 1.63441,1.96129 2.87656,2.09204c1.04602,0.06538 2.15742,-0.06538 3.13806,-0.32688c1.83054,-0.45763 3.98795,-1.50365 5.68773,-2.41892c2.4843,-1.30753 4.70709,-2.81118 6.603,-4.1187l2.09204,-1.43828l0.26151,-0.19613l0.84989,-0.65376c0.06538,-0.06538 0.19613,-0.19613 0.19613,-0.19613l0.13075,-0.19613c0.06538,-0.19613 0.06538,-0.26151 0,-0.45763l-0.06538,-0.06538l-0.13075,-0.13075c-0.19613,-0.13075 -0.06538,-0.13075 -0.39226,-0.19613c0,0 -0.26151,-0.06538 -0.19613,-0.06538h-0.06538c-0.19613,0 -0.32688,0 -0.45763,0.06538c-0.45763,0.13075 -0.91527,0.45763 -1.24215,0.65376c-0.65376,0.52301 -1.56903,1.04602 -2.28817,1.56903c-2.09204,1.43828 -4.24946,2.81118 -6.47225,4.1187h0.06538c-0.91527,0.52301 -2.28817,1.17677 -3.26881,1.63441l-0.19613,0.06538c-0.06538,0.06538 -0.32688,0.19613 -0.39226,0.19613c-0.13075,0.06538 -0.52301,0.13075 -0.71914,0.26151l-0.52301,0.13075c-0.19613,0.06538 -0.26151,0.13075 -0.52301,0.13075c-0.06538,0.06538 -0.13075,0.06538 -0.19613,0.06538c-0.06538,0 -0.19613,0.06538 -0.26151,0.06538c-0.19613,0.06538 -0.26151,0.06538 -0.26151,0.06538c-0.32688,0.06538 -0.32688,0.06538 -0.26151,0.06538h-0.32688c-0.13075,0 -0.26151,0.06538 -0.39226,0.06538h-0.58839c-0.13075,0 -0.26151,-0.06538 -0.39226,-0.13075l-0.19613,-0.19613c-0.06538,-0.06538 -0.06538,-0.13075 -0.06538,-0.19613c-0.13075,-0.32688 -0.13075,-0.58839 -0.13075,-0.91527l0.06538,-0.26151c0,-0.06538 0.06538,-0.13075 0.06538,-0.19613c0,-0.06538 0,-0.13075 0.06538,-0.19613c0.06538,-0.32688 0.19613,-0.58839 0.32688,-0.84989c0.06538,-0.06538 0.13075,-0.06538 0.13075,-0.13075c0.78452,0.32688 1.83054,0.19613 2.4843,-0.13075zM175.65062,315.31004l0.32688,-0.45763c0.84989,-1.1114 1.89591,-2.09204 2.94193,-3.00731c0,0 0.26151,-0.19613 0.32688,-0.26151c0.32688,-0.26151 0.58839,-0.52301 0.98064,-0.78452c0.65376,-0.45763 1.24215,-0.78452 1.83054,-0.91527c-0.13075,0.32688 -0.32688,0.91527 -0.32688,0.91527c-0.39226,0.78452 -1.04602,1.50365 -1.69978,2.09204c-0.26151,0.19613 -0.06538,0.06538 -0.19613,0.19613l-0.19613,0.19613h0.06538l-0.26151,0.13075l-0.45763,0.32688l-0.58839,0.39226l-0.91527,0.65376l-0.39226,0.19613c-0.13075,0.06538 -0.26151,0.06538 -0.26151,0.06538l-0.13075,0.13075c-0.13075,0.06538 -0.19613,0.13075 -0.19613,0.13075c-0.19613,0.06538 -0.39226,0.13075 -0.58839,0.13075c-0.06538,0.06538 -0.13075,0.06538 -0.13075,0.06538c-0.06538,0 -0.13075,-0.06538 -0.13075,-0.19613zM177.0889,314.91778h0.06538c-0.06538,0 -0.06538,0.06538 -0.06538,0.06538zM178.26567,307.59564c0.52301,0.06538 0.91527,-0.26151 1.3729,-0.52301c-0.06538,0.06538 0.19613,0 0.19613,-0.06538c0.13075,0 0.26151,-0.06538 0.39226,-0.06538c0.26151,-0.13075 0.45763,-0.19613 0.71914,-0.26151c0.52301,-0.13075 0.98064,-0.26151 1.50365,-0.39226c0.45763,-0.19613 1.04602,-0.32688 1.43828,-0.65376c0.32688,-0.26151 0,-0.71914 -0.26151,-0.91527c-0.32688,-0.26151 -0.91527,-0.45763 -1.30753,-0.26151c-0.19613,0.06538 -0.45763,0.19613 -0.65376,0.32688c-0.13075,0 -0.13075,0 0,0c-0.06538,0 -0.19613,0.06538 -0.26151,0.06538c-0.13075,0.06538 -0.26151,0.13075 -0.39226,0.13075c-0.52301,0.19613 -1.04602,0.32688 -1.56903,0.52301c-0.52301,0.19613 -0.98064,0.39226 -1.43828,0.65376c-0.19613,0.13075 -0.52301,0.32688 -0.58839,0.52301c-0.13075,0.52301 0.45763,0.84989 0.84989,0.91527z" data-paper-data="{&quot;glyphName&quot;:&quot;é&quot;,&quot;glyphIndex&quot;:3,&quot;word&quot;:1}"/><path d="M246.71461,323.54745c-1.83054,-0.58839 -3.79182,-0.78452 -5.68773,-0.98064c-4.24946,-0.52301 -8.56429,-0.58839 -12.87912,-0.32688c-3.8572,0.19613 -7.7144,0.52301 -11.50622,0.98064c-3.8572,0.52301 -7.64902,1.17677 -11.44084,1.89591c-4.05333,0.78452 -8.10666,1.69978 -12.09461,2.68043c0.32688,-0.58839 0.58839,-1.17677 0.91527,-1.76516c0.91527,-1.83054 1.83054,-3.79182 2.7458,-5.62236c0.26151,-0.58839 0.58839,-1.17677 0.91527,-1.76516c0.19613,-0.32688 0.39226,-0.71914 0.58839,-1.04602c0,-0.13075 0.06538,-0.19613 0.13075,-0.26151c0,-0.06538 0,-0.13075 0.06538,-0.13075c-0.13075,0.13075 -0.06538,0 0,0c0.06538,-0.19613 0.19613,-0.32688 0.26151,-0.52301c0.52301,-0.91527 1.04602,-1.76516 1.56903,-2.61505c0.32688,-0.52301 0.58839,-0.98064 0.91527,-1.50365c0.19613,-0.32688 0.39226,-0.65376 0.58839,-1.04602c0.39226,-0.39226 0.78452,-0.71914 1.17677,-1.1114c0.26151,-0.32688 0,-0.71914 -0.26151,-0.91527c-0.32688,-0.26151 -0.78452,-0.32688 -1.24215,-0.26151c-0.71914,0.19613 -1.1114,0.71914 -1.43828,1.30753c-0.71914,0.71914 -1.43828,1.3729 -2.09204,2.09204c-0.65376,0.78452 -1.3729,1.63441 -2.09204,2.41892c-0.84989,0.98064 -1.69978,1.89591 -2.61505,2.81118c-0.19613,0.19613 -0.45763,0.45763 -0.65376,0.65376c-0.13075,0.06538 -0.19613,0.19613 -0.32688,0.26151c-0.06538,0.06538 -0.13075,0.13075 -0.19613,0.13075l-0.13075,0.13075c-0.39226,0.32688 -0.78452,0.58839 -1.24215,0.84989c-0.19613,0.19613 -0.91527,0.52301 -0.91527,0.13075c0,0 -0.06538,-0.13075 -0.06538,-0.19613c0,-0.13075 0,-0.26151 0,-0.45763c0,0.06538 0,-0.13075 0.06538,-0.19613c0,-0.13075 0,-0.26151 0.06538,-0.32688c0.06538,-0.52301 0.26151,-0.91527 0.45763,-1.3729c0.13075,-0.26151 0.19613,-0.45763 0.32688,-0.71914c0.06538,-0.13075 0.13075,-0.19613 0.19613,-0.32688c0,0 0,0 0,-0.06538h0.06538c0,-0.06538 0.06538,-0.19613 0.13075,-0.26151c0.52301,-0.91527 1.17677,-1.83054 1.83054,-2.7458c0.32688,-0.52301 0.71914,-0.98064 1.17677,-1.50365c0.13075,-0.13075 0.32688,-0.32688 0.45763,-0.52301c0.13075,-0.13075 0.26151,-0.26151 0.45763,-0.39226c0.06538,-0.06538 0.13075,-0.13075 0.19613,-0.19613c0.06538,-0.06538 0.19613,-0.19613 0.19613,-0.19613c0.26151,-0.19613 0.52301,-0.39226 0.84989,-0.58839c0,0.06538 0,0.06538 0,0.06538c0,0.32688 0,0.58839 0.06538,0.91527c0,0.26151 0.32688,0.45763 0.58839,0.58839c0.19613,0.06538 0.65376,0.06538 0.84989,-0.13075c0.19613,-0.39226 0.32688,-0.65376 0.39226,-1.04602c0.06538,-0.32688 0,-0.65376 -0.06538,-0.98064c-0.19613,-0.58839 -0.91527,-0.98064 -1.50365,-1.04602c-1.17677,-0.13075 -2.22279,0.65376 -3.07268,1.3729c-1.3729,1.17677 -2.4843,2.68043 -3.46494,4.18408c-0.65376,0.98064 -1.24215,1.96129 -1.69978,3.00731c-0.39226,0.84989 -0.71914,1.76516 -0.65376,2.68043c0.13075,1.04602 0.98064,1.76516 1.96129,1.96129c1.1114,0.32688 2.09204,0 3.00731,-0.58839c0.98064,-0.65376 1.83054,-1.43828 2.68043,-2.28817c0.13075,-0.06538 0.19613,-0.19613 0.32688,-0.32688c-0.06538,0.06538 -0.06538,0.13075 -0.13075,0.26151c-0.52301,0.91527 -0.98064,1.89591 -1.50365,2.87656c-1.43828,2.81118 -2.15742,4.05333 -2.81118,5.42623v0.06538c-0.26151,0.52301 -0.58839,1.04602 -0.84989,1.56903c-0.71914,0.19613 -1.43828,0.39226 -2.15742,0.58839c-2.7458,0.84989 -5.49161,1.96129 -7.77977,3.72645c-1.17677,0.91527 -2.15742,1.89591 -2.94193,3.07268c-0.84989,1.17677 -1.56903,2.61505 -1.83054,4.05333c-0.19613,1.3729 0.19613,2.7458 1.30753,3.53032c1.30753,0.98064 3.13806,0.98064 4.57634,0.39226c2.02666,-0.78452 3.39957,-2.41892 4.64171,-4.1187c1.43828,-1.96129 2.68043,-4.1187 3.92258,-6.21074c0.58839,-1.1114 1.24215,-2.22279 1.83054,-3.39957c0,0 0.06538,-0.06538 0.06538,-0.13075c0.06538,-0.06538 0.06538,-0.06538 0.06538,-0.13075c0.06538,0 0.13075,0 0.19613,-0.06538c7.64902,-1.89591 15.4288,-3.59569 23.14319,-4.70709c1.89591,-0.26151 3.79182,-0.52301 5.75311,-0.71914c1.83054,-0.19613 3.66107,-0.32688 5.49161,-0.45763c4.24946,-0.32688 8.43354,-0.32688 12.61762,0c2.4843,0.13075 4.64171,0.45763 6.99526,0.98064c0.19613,0.06538 0.45763,0.13075 0.65376,0.19613c0.13075,0.06538 0.19613,0.06538 0.32688,0.13075c0.06538,0 0.06538,0 0.06538,0.06538c0.06538,0 0.13075,0 0.19613,0.06538c0.19613,0.06538 0.39226,0.19613 0.58839,0.32688c0,0 0,0 0.06538,0c0,0 0,0 0.06538,0.06538c-0.13075,-0.06538 0.13075,0.13075 0.13075,0.19613h0.06538c0,0.06538 0,0.06538 0,0.06538c0.06538,0.06538 0.06538,0.13075 0.06538,0.19613c0.06538,0.26151 0.06538,0.45763 0,0.71914c-0.26151,0.98064 1.96129,1.63441 2.28817,0.65376c0.65376,-2.35355 -2.15742,-3.53032 -3.98795,-4.05333zM178.85406,342.83344h-0.06538c-0.06538,0 -0.13075,0 -0.13075,0c-0.06538,-0.06538 -0.06538,-0.06538 -0.06538,-0.06538c-0.06538,0 -0.06538,0 -0.13075,0c-0.13075,-0.06538 -0.19613,-0.13075 -0.26151,-0.19613c0,0 -0.06538,-0.06538 -0.13075,-0.13075c0,0 -0.06538,-0.06538 -0.06538,-0.13075c0,0 0,0 -0.06538,0c-0.06538,-0.13075 -0.06538,-0.26151 -0.13075,-0.39226c0,0 -0.06538,-0.06538 -0.06538,-0.13075c0,0 0,-0.06538 0,-0.13075c-0.06538,-0.13075 -0.06538,-0.32688 -0.06538,-0.45763c-0.06538,-1.24215 0.65376,-2.7458 1.30753,-3.79182c1.50365,-2.41892 3.66107,-4.05333 6.14537,-5.29548c1.30753,-0.65376 2.4843,-1.1114 3.92258,-1.50365c0.06538,-0.06538 0.13075,-0.06538 0.19613,-0.06538c-0.65376,1.1114 -1.24215,2.22279 -1.89591,3.33419c-1.17677,2.02666 -2.41892,3.98795 -3.8572,5.81849c-0.52301,0.65376 -1.04602,1.30753 -1.69978,1.83054c0,0 0,0 0,0.06538h-0.06538c-0.06538,0.06538 -0.13075,0.06538 -0.19613,0.13075c-0.32688,0.26151 -0.78452,0.52301 -1.17677,0.71914c-0.19613,0.13075 -0.26151,0.13075 -0.45763,0.19613c-0.13075,0.06538 -0.32688,0.13075 -0.45763,0.13075c-0.06538,0 -0.13075,0 -0.19613,0.06538c-0.06538,0 -0.06538,0 -0.13075,0c-0.06538,0 -0.19613,0 -0.26151,0z" data-paper-data="{&quot;glyphName&quot;:&quot;g&quot;,&quot;glyphIndex&quot;:4,&quot;word&quot;:1}"/><path d="M209.90778,310.14532c0.06538,-0.52301 -0.19613,-0.84989 -0.39226,-0.98064h0.06538c-0.32688,-0.19613 -0.78452,-0.19613 -1.04602,-0.06538l-1.17677,0.84989l-0.98064,0.91527c-0.58839,0.52301 -1.1114,1.17677 -1.56903,1.76516c-0.91527,1.17677 -1.83054,2.68043 -2.61505,4.18408c-0.39226,0.65376 -0.71914,1.50365 -0.91527,2.22279c-0.13075,0.45763 -0.13075,1.04602 0.06538,1.50365c1.17677,2.28817 5.2301,0.52301 6.73375,-0.13075c0.84989,-0.32688 2.02666,-0.91527 2.81118,-1.30753c2.87656,-1.50365 5.03397,-2.87656 7.19139,-4.31483c0.19613,-0.19613 0.65376,-0.39226 2.22279,-1.43828c0.71914,-0.45763 1.3729,-0.84989 1.76516,-1.30753c0.58839,-0.65376 -0.84989,-1.24215 -1.30753,-1.1114c-0.78452,0.39226 -1.56903,0.84989 -2.7458,1.69978c-0.71914,0.45763 -1.56903,0.91527 -2.22279,1.43828l-3.79182,2.35355c-0.13075,0.13075 -0.45763,0.26151 -0.65376,0.39226c-0.84989,0.52301 -1.83054,1.04602 -2.41892,1.30753l-1.30753,0.65376c-1.04602,0.39226 -2.09204,0.91527 -3.13806,1.17677l-0.78452,0.19613c-0.19613,0.06538 -0.39226,0.06538 -0.45763,-0.13075c0,-0.19613 0.06538,-0.45763 0.13075,-0.71914c0.19613,-0.78452 0.58839,-1.56903 0.98064,-2.28817c0.26151,-0.58839 0.65376,-1.30753 1.17677,-2.02666c0.84989,-1.30753 1.89591,-2.4843 3.00731,-3.59569l0.71914,-0.65376l0.26151,-0.19613zM210.30004,307.20339c0.78452,0.19613 1.3729,-0.19613 1.96129,-0.58839l0.58839,-0.45763l0.65376,-0.52301c0.32688,-0.32688 -0.06538,-0.78452 -0.26151,-0.91527c-0.26151,-0.26151 -1.04602,-0.52301 -1.43828,-0.19613l-0.52301,0.45763l-0.52301,0.39226l-0.32688,0.19613c-0.06538,0.06538 -0.26151,0.19613 -0.32688,0.19613c-0.26151,0.19613 -0.45763,0.39226 -0.52301,0.58839c0,0.39226 0.39226,0.78452 0.71914,0.84989z" data-paper-data="{&quot;glyphName&quot;:&quot;i&quot;,&quot;glyphIndex&quot;:5,&quot;word&quot;:1}"/><path d="M236.58129,309.81844c-0.52301,0.39226 -1.1114,0.65376 -1.69978,0.98064l-1.96129,0.91527c-1.50365,0.58839 -3.00731,1.1114 -4.57634,1.43828h-0.13075v-0.06538c0.39226,-0.98064 0.65376,-2.02666 0,-2.94193c-0.52301,-0.78452 -1.56903,-1.04602 -2.41892,-0.58839c-0.52301,0.32688 -0.98064,0.91527 -1.17677,1.50365c-0.19613,0.39226 -0.19613,0.91527 -0.19613,1.30753c0,0.58839 0.13075,1.17677 0.52301,1.63441c0.06538,0.06538 0.13075,0.13075 0.19613,0.19613c-0.13075,0.19613 -0.32688,0.39226 -0.52301,0.65376c-0.65376,0.91527 -1.43828,1.76516 -2.15742,2.61505c-0.84989,0.84989 -1.56903,1.56903 -2.61505,2.09204l-0.32688,0.19613c0.19613,-0.13075 -0.13075,0.06538 -0.19613,0.06538c-0.13075,0 -0.19613,0.06538 -0.32688,0.06538c-0.19613,0 -0.52301,0 -0.52301,-0.32688v-0.26151v-0.19613v-0.06538c0,-0.32688 0.13075,-0.65376 0.19613,-0.91527c0.39226,-1.50365 1.24215,-2.87656 2.15742,-4.05333c0.91527,-1.17677 1.89591,-2.22279 3.00731,-3.13806c0.58839,0 0.84989,-0.71914 0.32688,-1.1114c-0.32688,-0.26151 -0.91527,-0.39226 -1.30753,-0.19613c-1.56903,0.91527 -2.87656,2.22279 -3.98795,3.66107c-0.98064,1.3729 -1.89591,2.94193 -2.28817,4.64171c-0.13075,0.52301 -0.19613,1.1114 -0.06538,1.63441c0.13075,0.65376 0.52301,1.1114 1.04602,1.43828c1.1114,0.65376 2.41892,0.39226 3.53032,-0.06538c1.17677,-0.45763 2.15742,-1.3729 3.00731,-2.28817c0.71914,-0.78452 1.3729,-1.56903 2.02666,-2.41892c0.39226,-0.45763 0.71914,-0.91527 1.04602,-1.3729c0.78452,-0.06538 1.63441,-0.26151 2.22279,-0.32688c1.56903,-0.32688 3.07268,-0.84989 4.51096,-1.43828c1.43828,-0.58839 2.87656,-1.24215 4.05333,-2.22279c0.78452,-0.65376 -0.78452,-1.43828 -1.3729,-1.04602zM226.51335,310.53758v0c0,0 0,0 -0.06538,0z" data-paper-data="{&quot;glyphName&quot;:&quot;o&quot;,&quot;glyphIndex&quot;:6,&quot;lastGlyphOfWord&quot;:true,&quot;word&quot;:1}"/><path d="M257.56707,309.3608l0.13075,0.06538c0.06538,0 0.06538,0 -0.13075,-0.06538zM251.02944,331.45798c0,-0.06538 -0.13075,-0.13075 0,0zM260.18212,310.14532c0.06538,0.06538 0.06538,0.06538 0.13075,0.06538c0.06538,0 0,0 -0.13075,-0.06538zM277.17994,315.50617c0,0 0,0 0.06538,0.06538zM307.71065,289.5518c-0.26151,-0.98064 -0.84989,-1.76516 -1.69978,-2.35355c-1.83054,-1.3729 -4.24946,-1.76516 -6.40687,-1.96129c-2.28817,-0.19613 -4.57634,-0.06538 -6.86451,0.19613c-6.27612,0.71914 -12.48686,2.15742 -18.4361,4.24946c-6.01462,2.09204 -11.89848,4.90322 -16.73632,8.95655c-1.24215,1.04602 -2.41892,2.15742 -3.33419,3.46494c-1.1114,1.43828 -1.89591,3.20344 -1.30753,5.03397c0.39226,1.30753 1.43828,2.22279 2.54967,2.87656c1.17677,0.71914 2.4843,1.1114 3.79182,1.43828c3.53032,0.84989 7.12601,1.17677 10.65633,1.63441l2.41892,0.39226l0.52301,0.13075c0.32688,0.06538 -0.26151,-0.06538 0.06538,0c0.06538,0 0.13075,0.06538 0.26151,0.06538l1.04602,0.26151c0.26151,0.06538 0.52301,0.19613 0.84989,0.32688c0.06538,0 0.06538,0 0.13075,0c0,0 0,0 0.06538,0.06538l0.45763,0.19613l0.58839,0.32688c0.06538,0.06538 0.19613,0.13075 0.26151,0.13075l0.39226,0.32688c0.06538,0.06538 0.13075,0.13075 0.19613,0.19613c-0.06538,-0.06538 0.19613,0.13075 0.19613,0.19613l0.58839,0.65376c0.13075,0.26151 0.32688,0.52301 0.45763,0.91527c0.19613,0.32688 0.26151,0.65376 0.32688,1.1114c0.13075,1.56903 -0.65376,3.00731 -1.63441,4.24946c-1.17677,1.3729 -2.68043,2.54967 -4.18408,3.53032c-1.56903,1.04602 -3.26881,1.96129 -4.9686,2.7458c-1.63441,0.71914 -3.39957,1.3729 -5.16472,1.96129c-1.30753,0.39226 -2.54967,0.78452 -3.92258,1.04602c-0.13075,0.06538 -0.26151,0.06538 -0.45763,0.06538c-0.19613,0.06538 0.26151,0 0,0.06538h-0.26151c-0.32688,0.06538 -0.65376,0.13075 -0.98064,0.13075c-0.71914,0.06538 -1.3729,0.13075 -2.02666,0.13075h-0.45763c0.26151,0 -0.19613,-0.06538 -0.32688,-0.06538c-0.32688,0 -0.65376,0 -0.98064,-0.06538c-0.19613,0 -0.32688,-0.06538 -0.45763,-0.06538c-0.06538,0 -0.06538,0 -0.13075,-0.06538c0.19613,0.06538 0,0 -0.06538,0c-0.32688,-0.06538 -0.65376,-0.13075 -0.91527,-0.26151h-0.06538c0,0 0,0 -0.06538,-0.06538c-0.06538,0 -0.06538,0 -0.06538,0c-0.06538,0 -0.13075,-0.06538 -0.26151,-0.13075l-0.26151,-0.13075h-0.06538c0,0 0,0 -0.06538,-0.06538l-0.52301,-0.45763l-0.06538,-0.06538l-0.26151,-0.32688h-0.06538c0,-0.06538 0,-0.13075 0,-0.13075l-0.19613,-0.32688c-0.19613,-0.32688 -0.19613,-0.45763 -0.26151,-0.78452c-0.06538,-0.52301 0,-0.91527 0.19613,-1.50365c0.32688,-0.98064 1.1114,-1.89591 1.96129,-2.61505c0.45763,-0.39226 0.91527,-0.78452 1.43828,-1.1114c0.45763,-0.32688 0.91527,-0.71914 1.3729,-0.98064c0.32688,-0.13075 0.19613,-0.58839 -0.06538,-0.71914c-0.32688,-0.26151 -0.78452,-0.32688 -1.1114,-0.19613l-1.89591,0.98064c-0.65376,0.45763 -1.30753,0.91527 -1.89591,1.43828c-1.04602,0.91527 -2.02666,2.15742 -2.15742,3.59569c-0.19613,1.43828 0.52301,2.7458 1.63441,3.72645c1.04602,0.91527 2.41892,1.3729 3.79182,1.69978c2.61505,0.52301 5.49161,0.19613 8.10666,-0.39226c1.50365,-0.32688 2.94193,-0.84989 4.38021,-1.30753c1.83054,-0.65376 3.59569,-1.3729 5.29548,-2.22279c1.76516,-0.78452 3.39957,-1.76516 4.90322,-2.87656c1.50365,-1.1114 3.00731,-2.35355 4.05333,-3.8572c0.98064,-1.3729 1.63441,-3.00731 1.30753,-4.70709c-0.26151,-1.50365 -1.24215,-2.7458 -2.35355,-3.72645c-2.15742,-1.89591 -5.2301,-2.41892 -7.9759,-2.81118c-1.83054,-0.32688 -3.72645,-0.52301 -5.55698,-0.78452l-2.61505,-0.32688l-1.17677,-0.19613c-0.19613,-0.06538 -0.39226,-0.13075 -0.58839,-0.13075c-0.06538,0 -0.13075,-0.06538 -0.26151,-0.06538h-0.06538c0,0 0,0 -0.06538,0c-0.71914,-0.19613 -1.3729,-0.32688 -2.02666,-0.58839l-0.45763,-0.13075l-0.06538,-0.06538c-0.06538,0 -0.13075,0 -0.13075,0c-0.32688,-0.13075 -0.58839,-0.26151 -0.84989,-0.45763c-0.06538,0 -0.13075,-0.06538 -0.19613,-0.06538c-0.19613,-0.13075 0.26151,0.13075 0.06538,0c-0.13075,-0.06538 -0.26151,-0.13075 -0.32688,-0.26151l-0.32688,-0.19613c-0.06538,-0.06538 -0.13075,-0.13075 -0.13075,-0.13075l-0.06538,-0.06538l-0.19613,-0.26151c-0.06538,-0.06538 -0.19613,-0.26151 -0.19613,-0.26151c-0.13075,-0.26151 -0.26151,-0.52301 -0.32688,-0.78452c-0.39226,-1.69978 0.71914,-3.33419 1.76516,-4.51096c0.52301,-0.65376 1.1114,-1.24215 1.69978,-1.76516c0.52301,-0.52301 1.04602,-0.98064 1.50365,-1.3729c2.41892,-1.89591 5.03397,-3.46494 7.77977,-4.83784c2.87656,-1.50365 5.75311,-2.61505 8.89117,-3.66107c3.07268,-1.04602 6.21074,-1.89591 9.3488,-2.61505l2.28817,-0.45763l1.1114,-0.19613c0.13075,0 0.32688,-0.06538 0.52301,-0.06538v0h0.06538c0.13075,-0.06538 0.26151,-0.06538 0.39226,-0.06538c1.3729,-0.26151 2.81118,-0.39226 4.24946,-0.58839c1.04602,-0.06538 2.09204,-0.13075 3.20344,-0.13075h0.65376h0.06538c0.06538,0 0.06538,0 0.06538,0h0.13075h0.45763l1.56903,0.19613c0.26151,0 0.52301,0.06538 0.78452,0.13075c0.13075,0 0.26151,0 0.39226,0.06538v0c0.06538,0 0.13075,0 0.19613,0.06538c0.52301,0.06538 0.98064,0.26151 1.43828,0.39226c0.06538,0.06538 0.06538,0.06538 0.06538,0.06538h0.06538l0.26151,0.13075l0.32688,0.19613c0,0 0,0 0.06538,0c0,0.06538 0.06538,0.06538 0.06538,0.06538l0.45763,0.32688c0.13075,0.13075 -0.19613,-0.13075 -0.06538,0c0.06538,0 0.06538,0.06538 0.13075,0.06538l0.19613,0.26151c0.06538,0.06538 0.06538,0.06538 0.06538,0.13075c0.06538,0.06538 0.06538,0.06538 0.06538,0c0,0.13075 0.06538,0.13075 0.06538,0.19613l0.13075,0.26151v0.06538c-0.06538,-0.06538 0,0.06538 0.06538,0.13075c0,0.19613 0,0.39226 0.06538,0.58839c0,0.13075 -0.06538,0.19613 -0.06538,0.32688v0.26151c-0.26151,1.30753 -0.98064,2.28817 -1.76516,3.26881c-1.89591,2.4843 -4.51096,4.18408 -7.32214,5.55698c-1.43828,0.71914 -2.7458,1.24215 -4.24946,1.76516c-1.43828,0.58839 -2.87656,1.04602 -4.38021,1.50365c-1.63441,0.58839 -3.20344,1.1114 -4.83784,1.56903c-0.65376,0.19613 -1.30753,0.39226 -1.96129,0.52301l-0.71914,0.19613c-0.13075,0 -0.26151,0 -0.32688,0.06538h-0.13075h-0.06538c-0.13075,-0.32688 -0.52301,-0.52301 -0.84989,-0.65376c-0.39226,-0.13075 -0.78452,-0.19613 -1.17677,-0.06538c-0.45763,0.13075 -0.58839,0.45763 -0.65376,0.84989v0.19613c0.13075,0.58839 0.65376,0.91527 1.17677,1.1114c0.52301,0.19613 1.17677,0.19613 1.76516,0.13075c1.04602,-0.06538 2.02666,-0.32688 3.00731,-0.52301c1.63441,-0.45763 3.26881,-0.98064 4.83784,-1.50365l4.31483,-1.43828c3.00731,-1.1114 6.01462,-2.28817 8.76042,-3.98795c2.54967,-1.63441 5.03397,-3.8572 6.3415,-6.66838c0.39226,-0.91527 0.65376,-1.96129 0.39226,-2.94193zM252.66385,320.99778zM303.65733,287.59051c-0.06538,-0.06538 -0.06538,-0.06538 -0.13075,-0.06538c-0.13075,-0.06538 0.06538,0 0.13075,0.06538zM255.34428,307.7264c0.06538,0 0.06538,0.06538 0.06538,0.06538c0,-0.06538 -0.06538,-0.06538 -0.06538,-0.06538zM301.95754,287.0675zM279.79499,305.04597h0.06538c0.06538,0 0.26151,-0.06538 -0.06538,0zM301.89217,287.0675h0.06538c-0.06538,0 -0.19613,0 -0.06538,0z" data-paper-data="{&quot;glyphName&quot;:&quot;S&quot;,&quot;glyphIndex&quot;:7,&quot;firstGlyphOfWord&quot;:true,&quot;word&quot;:2}"/><path d="M308.88743,310.4722c-0.32688,-0.26151 -1.1114,-0.52301 -1.50365,-0.19613c-4.57634,3.59569 -9.74106,6.99526 -15.03654,9.54493c-1.04602,0.52301 -1.96129,0.84989 -2.87656,1.1114c-0.71914,0.19613 -1.83054,0.65376 -1.83054,-0.52301c0,0 0,0 0,-0.06538c0.06538,-0.71914 0.26151,-1.30753 0.45763,-1.89591c0.98064,-2.87656 2.41892,-5.55698 3.79182,-8.23741c1.17677,-2.15742 2.4843,-4.38021 3.66107,-6.53763h5.62236c0.13075,0 0.26151,0 0.39226,0c0,0.19613 0.06538,0.32688 0.19613,0.45763c0.32688,0.39226 0.91527,0.52301 1.43828,0.45763c1.17677,-0.19613 2.22279,-0.58839 3.33419,-0.78452c0.39226,-0.06538 0.58839,-0.45763 0.45763,-0.78452c-0.19613,-0.39226 -0.71914,-0.65376 -1.1114,-0.71914c-1.69978,-0.19613 -3.46494,-0.13075 -5.16472,-0.13075c-1.43828,0 -2.87656,-0.06538 -4.24946,-0.06538c0,0 0.06538,-0.06538 0.06538,-0.13075c0.39226,-0.58839 0.71914,-1.17677 1.04602,-1.83054l0.39226,-0.78452c0.19613,-0.32688 0.52301,-0.71914 0.71914,-1.1114c0.98064,-1.50365 1.89591,-3.13806 3.07268,-4.57634c0.13075,-0.26151 0.13075,-0.52301 -0.06538,-0.71914c-0.19613,-0.26151 -0.58839,-0.39226 -0.98064,-0.39226c-0.39226,0.06538 -0.58839,0.13075 -0.78452,0.39226l-0.45763,0.52301l-0.91527,1.17677l-1.56903,2.35355c-0.45763,0.71914 -0.91527,1.43828 -1.30753,2.15742l-0.39226,0.71914c-0.19613,0.32688 -0.39226,0.65376 -0.52301,0.98064c-0.26151,0.45763 -0.52301,0.84989 -0.71914,1.24215c-0.84989,0.06538 -1.69978,0.06538 -2.54967,0.06538h-11.17934c-13.53288,0.13075 -14.64428,0.13075 -15.6903,0.13075c-2.15742,0 -4.24946,0 -6.3415,0.06538h-0.19613c0,0 0,0 -0.06538,0c0.06538,0 0.06538,0 0.13075,0c-0.19613,0 -0.45763,0 -0.58839,0.13075c-0.13075,0.13075 -0.32688,0.32688 -0.26151,0.52301c0.26151,0.98064 1.3729,0.91527 2.15742,0.84989h0.26151h2.02666c2.7458,0 5.42623,-0.06538 8.10666,-0.06538c3.59569,0 7.19139,-0.06538 10.78708,-0.06538c3.72645,-0.06538 7.45289,-0.06538 11.24472,-0.06538h1.24215c-1.1114,1.83054 -2.15742,3.66107 -3.13806,5.55698c-1.50365,2.68043 -2.94193,5.36085 -3.92258,8.23741c-0.32688,0.91527 -0.71914,1.96129 -0.65376,2.94193c0.06538,0.84989 0.58839,1.50365 1.30753,1.89591c1.69978,0.91527 3.92258,0.19613 5.62236,-0.45763c2.54967,-1.04602 4.90322,-2.41892 7.25676,-3.8572c1.69978,-1.04602 3.26881,-2.02666 4.83784,-3.13806c1.50365,-1.1114 3.33419,-2.22279 4.70709,-3.46494c0.32688,-0.26151 0,-0.71914 -0.26151,-0.91527z" data-paper-data="{&quot;glyphName&quot;:&quot;t&quot;,&quot;glyphIndex&quot;:8,&quot;word&quot;:2}"/><path d="M306.99151,318.57885c-0.32688,0.32688 -0.65376,0.65376 -0.98064,0.98064c-0.32688,0.39226 0.13075,0.84989 0.45763,1.04602c0.26151,0.13075 0.52301,0.19613 0.84989,0.13075c0.19613,0 0.39226,-0.06538 0.58839,-0.19613c0.26151,-0.26151 0.58839,-0.52301 0.84989,-0.84989c0.19613,-0.32688 0,-0.65376 -0.26151,-0.91527c-0.19613,-0.13075 -0.52301,-0.26151 -0.78452,-0.26151c-0.19613,-0.06538 -0.52301,-0.06538 -0.71914,0.06538z" data-paper-data="{&quot;glyphName&quot;:&quot;.&quot;,&quot;glyphIndex&quot;:9,&quot;lastGlyphOfWord&quot;:true,&quot;word&quot;:2}"/><path d="M393.81118,293.53975c0.06538,0.06538 0.13075,0.06538 0.13075,0.13075c-0.06538,-0.06538 -0.06538,-0.13075 -0.13075,-0.13075zM395.96859,293.47437c-0.52301,-0.91527 -1.50365,-1.56903 -2.4843,-1.96129c-2.94193,-1.17677 -6.21074,-1.30753 -9.3488,-1.3729c-4.18408,-0.06538 -8.30278,0.19613 -12.42149,0.58839c-4.51096,0.45763 -8.95655,1.1114 -13.40213,1.89591c-3.59569,0.65376 -7.25676,1.43828 -10.78708,2.4843c-0.91527,0.26151 -1.76516,0.58839 -2.68043,0.91527l-1.17677,0.52301c-0.13075,0.06538 -0.32688,0.13075 -0.45763,0.26151c-0.06538,0 -0.13075,0.06538 -0.19613,0.13075c0,0 0,0 -0.06538,0c-0.06538,0.06538 -0.13075,0.13075 -0.13075,0.19613c0,0 0,0 -0.06538,0c-0.13075,0.19613 -0.06538,0.45763 0.06538,0.65376c0.26151,0.26151 0.71914,0.45763 1.04602,0.39226h0.13075c0.06538,0 0.13075,0 0.13075,0v0c0,0 -0.06538,0 -0.13075,0h0.19613c0.13075,0 0.13075,0 0.19613,0c0.32688,0.06538 0.91527,0.06538 0.71914,-0.39226c0,0 0,0 0,-0.06538l0.39226,-0.19613h0.06538c0.06538,-0.06538 0.13075,-0.06538 0.19613,-0.06538l0.39226,-0.19613l0.84989,-0.26151c1.50365,-0.52301 2.94193,-0.91527 4.44559,-1.30753c1.83054,-0.45763 3.66107,-0.84989 5.55698,-1.17677c1.04602,-0.26151 2.02666,-0.39226 3.07268,-0.58839c0.84989,-0.19613 1.56903,-0.32688 3.07268,-0.52301c4.38021,-0.52301 8.82579,-1.17677 13.27138,-1.50365c2.02666,-0.13075 4.1187,-0.26151 6.21074,-0.26151h2.7458h0.06538c0.06538,0 0.13075,0 0.13075,0v0h0.26151c0.26151,0.06538 0.45763,0.06538 0.71914,0.06538c0.39226,0 0.84989,0.06538 1.24215,0.06538l2.28817,0.26151l0.98064,0.19613c-0.45763,-0.06538 0.06538,0.06538 0.19613,0.06538l0.45763,0.13075c0.26151,0.06538 0.52301,0.13075 0.78452,0.26151c0.06538,0 0.13075,0.06538 0.19613,0.06538c0.06538,0 -0.32688,-0.13075 -0.06538,-0.06538l0.32688,0.19613l0.32688,0.13075l0.06538,0.06538l0.26151,0.19613l0.06538,0.06538c0.19613,0.13075 -0.19613,-0.19613 0,-0.06538l0.19613,0.26151c0.06538,0.06538 0.19613,0.19613 0.06538,0.13075v0c0,0.06538 0.06538,0.13075 0.13075,0.19613c-0.06538,0 -0.06538,0 -0.06538,0.06538c0.06538,0.06538 0.06538,0.06538 0.06538,0.13075v0.32688v0v0.06538c0,0.06538 0,0.06538 0,0.06538v0.06538l-0.19613,0.71914c-0.26151,0.45763 0.45763,0.91527 0.78452,0.98064c0.45763,0.13075 1.04602,0.13075 1.24215,-0.32688v0c0.06538,-0.06538 0.06538,-0.06538 0.06538,-0.13075c0.06538,-0.06538 0.06538,-0.13075 0.06538,-0.13075c0.06538,-0.13075 0.13075,-0.19613 0.13075,-0.32688c0.06538,-0.26151 0.13075,-0.45763 0.13075,-0.71914c0,-0.39226 -0.13075,-0.84989 -0.32688,-1.17677zM342.75232,297.20082zM344.1906,298.18146zM345.43275,297.5277h0.06538c-0.06538,0 -0.13075,0.06538 -0.06538,0zM394.07268,293.93201zM395.83784,296.02405c0.06538,0 0.06538,0 0.06538,0c-0.06538,0 -0.06538,0.06538 -0.06538,0zM393.41892,293.14749l-0.06538,-0.06538c-0.06538,-0.06538 -0.32688,-0.19613 0.06538,0.06538zM374.13292,293.53975c0.06538,0 0.06538,0 0.13075,-0.06538c0.06538,-0.06538 0.06538,0 -0.13075,0.06538zM369.62196,327.99303h-0.06538c-0.06538,0 -0.06538,0 0.06538,0zM376.22496,293.409c-0.19613,-0.32688 -0.65376,-0.39226 -0.98064,-0.32688c-0.39226,0 -0.65376,0.13075 -0.98064,0.39226v0c-0.06538,0.06538 -0.06538,0.06538 -0.13075,0.13075c-0.06538,0 -0.06538,0 -0.06538,0l-0.19613,0.19613c-0.32688,0.32688 -0.65376,0.65376 -0.91527,1.04602l-2.54967,3.00731c-2.35355,3.00731 -4.64171,6.01462 -6.92988,9.0873c-2.61505,3.39957 -5.2301,6.92988 -7.77977,10.39482l-6.53763,8.76042c-0.32688,0.45763 -0.71914,0.98064 -1.04602,1.43828c-1.50365,0.26151 -3.07268,0.52301 -4.57634,0.84989c-3.79182,0.84989 -7.51827,1.89591 -11.17934,3.13806c-2.61505,0.84989 -5.2301,1.83054 -7.7144,3.13806c-0.26151,0.13075 -0.32688,0.58839 -0.26151,0.84989c0.19613,0.45763 0.78452,0.65376 1.24215,0.65376c0.13075,0 0.26151,-0.06538 0.32688,-0.06538l0.19613,-0.06538c0.19613,0 0.39226,-0.13075 0.45763,-0.32688c0,-0.06538 0,-0.06538 0,-0.06538c0.13075,-0.06538 0.19613,-0.13075 0.32688,-0.13075c0,-0.06538 0.06538,-0.06538 0.06538,-0.06538c3.20344,-1.50365 6.53763,-2.54967 9.80644,-3.53032c1.83054,-0.58839 3.66107,-1.1114 5.49161,-1.56903c1.43828,-0.32688 2.87656,-0.65376 4.31483,-0.91527c-0.26151,0.26151 -0.45763,0.52301 -0.71914,0.78452c-0.32688,0.26151 -0.13075,0.78452 0.13075,0.98064c0.39226,0.32688 0.98064,0.45763 1.43828,0.19613h-0.06538c0.52301,-0.19613 0.84989,-0.65376 1.24215,-1.17677c0.39226,-0.45763 0.78452,-0.91527 1.1114,-1.3729c3.59569,-0.65376 7.25676,-1.04602 10.91783,-1.24215c1.30753,-0.06538 2.61505,-0.06538 3.98795,-0.06538c0.52301,0 0.78452,0 1.96129,0.06538l2.02666,0.19613l0.91527,0.19613c0.06538,0 0.26151,0 0.26151,0.06538c0.13075,0 0.26151,0.06538 0.39226,0.13075c0,0.13075 -0.06538,0.19613 -0.26151,0.26151c0.19613,-0.13075 -0.32688,0.13075 -0.06538,0l-0.26151,0.13075c-0.19613,0 -0.39226,0.06538 -0.52301,0.13075c-0.32688,0.06538 -0.52301,0.32688 -0.32688,0.58839c0.13075,0.39226 0.65376,0.58839 1.04602,0.58839c0.52301,-0.06538 0.98064,-0.06538 1.43828,-0.19613c0.52301,-0.13075 0.98064,-0.52301 1.24215,-1.04602c0.13075,-0.13075 0.19613,-0.32688 0.06538,-0.52301c-0.52301,-0.98064 -1.76516,-1.3729 -2.7458,-1.56903c-1.3729,-0.26151 -2.7458,-0.39226 -4.18408,-0.45763c-3.20344,-0.13075 -6.40687,0 -9.61031,0.32688c-1.63441,0.13075 -3.26881,0.39226 -4.90322,0.58839c2.02666,-2.61505 3.98795,-5.29548 5.88386,-7.9759l7.77977,-10.39482c2.28817,-3.13806 4.64171,-6.21074 6.99526,-9.28343c1.43828,-1.83054 3.00731,-3.66107 4.44559,-5.49161c0.06538,-0.06538 0.13075,-0.39226 0,-0.45763zM334.90717,320.99778z" data-paper-data="{&quot;glyphName&quot;:&quot;I&quot;,&quot;glyphIndex&quot;:10,&quot;firstGlyphOfWord&quot;:true,&quot;word&quot;:3}"/><path d="M389.36559,310.86446c-0.39226,-0.26151 -0.91527,-0.39226 -1.30753,-0.13075c-0.84989,0.58839 -1.69978,1.50365 -2.4843,2.09204l-2.15742,1.69978c-1.30753,0.98064 -2.41892,1.83054 -3.79182,2.68043c-1.17677,0.71914 -1.56903,0.98064 -2.94193,1.69978c-0.26151,0.13075 -0.52301,0.26151 -1.69978,0.65376c-1.24215,0.39226 -2.4843,0.84989 -3.66107,0.84989c0.06538,-0.19613 0.06538,-0.32688 0.13075,-0.45763c0.32688,-1.24215 0.65376,-2.54967 1.1114,-3.72645l0.65376,-1.83054l0.39226,-0.84989l0.19613,-0.39226l0.19613,-0.39226l0.98064,-1.43828l0.58839,-0.65376c0.32688,-0.32688 0.52301,-0.45763 0.58839,-0.52301l0.78452,-0.52301l0.45763,-0.19613c-0.19613,0.13075 0,0 0.06538,0l0.26151,-0.13075c0,0 0,0 -0.06538,0c0.39226,-0.13075 0.65376,-0.39226 0.45763,-0.78452c-0.26151,-0.52301 -1.04602,-0.78452 -1.63441,-0.65376c-2.4843,0.84989 -4.1187,3.00731 -5.16472,5.29548c-1.04602,2.35355 -1.56903,4.70709 -2.22279,7.19139l-0.39226,-0.06538l-0.26151,-0.13075c0,0 -0.13075,-0.06538 -0.19613,-0.06538c-0.19613,-0.06538 -0.39226,-0.13075 -0.58839,-0.26151l-0.26151,-0.13075l-0.71914,-0.52301l-0.26151,-0.19613c0,0 -0.13075,-0.19613 -0.19613,-0.19613c-0.13075,-0.19613 -0.26151,-0.32688 -0.39226,-0.45763c-0.13075,-0.13075 -0.19613,-0.26151 -0.32688,-0.39226c-0.19613,-0.52301 -1.04602,-0.65376 -1.56903,-0.52301c-0.19613,0.06538 -0.52301,0.26151 -0.39226,0.52301c0,0.06538 0,0.13075 0.06538,0.19613c0.06538,0.19613 0.19613,0.45763 0.32688,0.58839c0.13075,0.19613 0.39226,0.45763 0.58839,0.65376c0.45763,0.52301 0.91527,0.98064 1.30753,1.50365l1.43828,1.30753c0.32688,0.39226 0.71914,0.78452 1.17677,1.04602c0.39226,0.19613 0.91527,0.39226 1.3729,0.19613c0.19613,0 0.39226,-0.06538 0.45763,-0.19613c0.19613,-0.19613 0.39226,-0.45763 0.45763,-0.71914c0.06538,-0.19613 0.13075,-0.39226 0.19613,-0.58839c0.52301,0 1.1114,-0.06538 1.63441,-0.13075c2.61505,-0.39226 4.1187,-1.1114 6.47225,-2.35355c1.76516,-0.98064 3.39957,-2.02666 4.9686,-3.13806c1.1114,-0.78452 1.56903,-1.24215 2.61505,-2.02666c0.52301,-0.39226 0.98064,-0.84989 1.43828,-1.24215c0.58839,-0.52301 1.04602,-0.84989 1.43828,-1.3729c0.19613,-0.32688 0.13075,-0.58839 -0.13075,-0.78452z" data-paper-data="{&quot;glyphName&quot;:&quot;s&quot;,&quot;glyphIndex&quot;:11,&quot;word&quot;:3}"/><path d="M408.25933,310.86446c-0.32688,-0.19613 -0.84989,-0.26151 -1.30753,0c-2.7458,2.41892 -5.36085,4.83784 -8.56429,6.53763c-1.3729,0.71914 -2.4843,1.3729 -3.79182,1.76516c-1.56903,0.45763 -2.54967,-0.58839 -2.09204,-1.76516l0.19613,-0.65376c0.19613,-0.71914 0.58839,-1.56903 0.98064,-2.35355c0.13075,-0.32688 0.39226,-0.65376 0.58839,-0.98064c1.24215,-1.89591 1.50365,-1.96129 2.02666,-2.61505c0.06538,-0.13075 0.19613,-0.19613 0.26151,-0.32688c0.13075,-0.13075 0.32688,-0.39226 0.32688,-0.52301v-0.06538c0,-0.71914 -1.50365,-1.17677 -1.96129,-0.65376c-0.39226,0.58839 -0.98064,1.1114 -1.43828,1.69978l-0.06538,0.06538l-2.02666,1.83054l-3.79182,4.05333c-0.58839,0.65376 -1.24215,1.30753 -1.96129,1.89591c-0.52301,0.52301 -1.04602,0.84989 -1.76516,1.24215c-0.06538,0.06538 -0.13075,0.06538 -0.19613,0.06538c-0.19613,-0.52301 -0.06538,-1.1114 0.13075,-1.63441c0.39226,-1.24215 1.24215,-2.22279 2.02666,-3.13806c0.78452,-0.98064 1.76516,-1.83054 2.54967,-2.4843c0.91527,-0.65376 1.89591,-1.24215 2.94193,-1.69978c-0.13075,0.06538 0.19613,-0.06538 0.26151,-0.06538c0.06538,-0.06538 0.19613,0 0.26151,-0.06538c0,0 0,0 0.06538,0c0.13075,0.06538 0.19613,0.13075 0.32688,0.13075c0.39226,0.19613 0.91527,0.19613 1.1114,-0.26151c0.32688,-0.71914 -0.52301,-1.17677 -1.1114,-1.3729c-0.52301,-0.06538 -1.17677,0.06538 -1.63441,0.19613c-1.3729,0.45763 -2.4843,0.98064 -3.46494,1.69978c-1.3729,0.98064 -2.54967,2.15742 -3.59569,3.46494c-0.91527,1.24215 -1.89591,2.54967 -1.96129,4.18408c0,0.71914 0.26151,1.50365 0.84989,1.96129c0.84989,0.58839 1.76516,0.58839 2.54967,0.26151c0.71914,-0.26151 1.30753,-0.58839 1.83054,-1.04602c0.65376,-0.45763 1.24215,-1.24215 1.89591,-1.83054c0.71914,-0.65376 1.3729,-1.24215 1.96129,-1.96129c-0.26151,0.91527 -0.39226,1.96129 0.13075,2.7458c0.84989,1.43828 2.87656,1.63441 4.44559,1.43828c0.98064,-0.19613 1.89591,-0.58839 4.51096,-2.02666c0.84989,-0.45763 1.3729,-0.84989 2.4843,-1.56903c2.41892,-1.56903 4.38021,-3.33419 6.53763,-5.2301c0.32688,-0.26151 -0.19613,-0.78452 -0.52301,-0.91527z" data-paper-data="{&quot;glyphName&quot;:&quot;a&quot;,&quot;glyphIndex&quot;:12,&quot;word&quot;:3}"/><path d="M427.41457,310.86446c-0.32688,-0.19613 -0.84989,-0.26151 -1.30753,0c-2.7458,2.41892 -5.36085,4.83784 -8.56429,6.53763c-1.3729,0.71914 -2.4843,1.3729 -3.79182,1.76516c-1.56903,0.45763 -2.54967,-0.58839 -2.09204,-1.76516l0.19613,-0.65376c0.19613,-0.71914 0.58839,-1.56903 0.98064,-2.35355c0.13075,-0.32688 0.39226,-0.65376 0.58839,-0.98064c1.24215,-1.89591 1.50365,-1.96129 2.02666,-2.61505c0.06538,-0.13075 0.19613,-0.19613 0.26151,-0.32688c0.13075,-0.13075 0.32688,-0.39226 0.32688,-0.52301v-0.06538c0,-0.71914 -1.50365,-1.17677 -1.96129,-0.65376c-0.39226,0.58839 -0.98064,1.1114 -1.43828,1.69978l-0.06538,0.06538l-2.02666,1.83054l-3.79182,4.05333c-0.58839,0.65376 -1.24215,1.30753 -1.96129,1.89591c-0.52301,0.52301 -1.04602,0.84989 -1.76516,1.24215c-0.06538,0.06538 -0.13075,0.06538 -0.19613,0.06538c-0.19613,-0.52301 -0.06538,-1.1114 0.13075,-1.63441c0.39226,-1.24215 1.24215,-2.22279 2.02666,-3.13806c0.78452,-0.98064 1.76516,-1.83054 2.54967,-2.4843c0.91527,-0.65376 1.89591,-1.24215 2.94193,-1.69978c-0.13075,0.06538 0.19613,-0.06538 0.26151,-0.06538c0.06538,-0.06538 0.19613,0 0.26151,-0.06538c0,0 0,0 0.06538,0c0.13075,0.06538 0.19613,0.13075 0.32688,0.13075c0.39226,0.19613 0.91527,0.19613 1.1114,-0.26151c0.32688,-0.71914 -0.52301,-1.17677 -1.1114,-1.3729c-0.52301,-0.06538 -1.17677,0.06538 -1.63441,0.19613c-1.3729,0.45763 -2.4843,0.98064 -3.46494,1.69978c-1.3729,0.98064 -2.54967,2.15742 -3.59569,3.46494c-0.91527,1.24215 -1.89591,2.54967 -1.96129,4.18408c0,0.71914 0.26151,1.50365 0.84989,1.96129c0.84989,0.58839 1.76516,0.58839 2.54967,0.26151c0.71914,-0.26151 1.30753,-0.58839 1.83054,-1.04602c0.65376,-0.45763 1.24215,-1.24215 1.89591,-1.83054c0.71914,-0.65376 1.3729,-1.24215 1.96129,-1.96129c-0.26151,0.91527 -0.39226,1.96129 0.13075,2.7458c0.84989,1.43828 2.87656,1.63441 4.44559,1.43828c0.98064,-0.19613 1.89591,-0.58839 4.51096,-2.02666c0.84989,-0.45763 1.3729,-0.84989 2.4843,-1.56903c2.41892,-1.56903 4.38021,-3.33419 6.53763,-5.2301c0.32688,-0.26151 -0.19613,-0.78452 -0.52301,-0.91527z" data-paper-data="{&quot;glyphName&quot;:&quot;a&quot;,&quot;glyphIndex&quot;:13,&quot;word&quot;:3}"/><path d="M430.81414,310.92983c0.19613,-0.26151 0.32688,-0.52301 0.26151,-0.78452c-0.06538,-0.45763 -0.52301,-0.71914 -0.91527,-0.84989c-1.83054,-0.58839 -3.92258,1.43828 -5.03397,2.54967c-1.50365,1.50365 -3.00731,3.07268 -4.18408,4.90322c-0.39226,0.71914 -0.98064,1.76516 -1.04602,2.54967c-0.06538,1.1114 0.91527,1.76516 1.83054,2.09204c1.17677,0.39226 2.61505,0.19613 3.72645,-0.19613c3.46494,-1.17677 6.53763,-3.07268 9.21805,-4.90322l1.56903,-1.17677c0.58839,-0.39226 1.1114,-0.84989 1.69978,-1.24215l0.78452,-0.58839l0.91527,-0.84989c0.26151,-0.26151 0.58839,-0.71914 0.71914,-0.98064c-0.06538,-0.26151 -0.39226,-0.58839 -0.65376,-0.78452c-0.26151,-0.13075 -0.65376,-0.13075 -0.91527,0c-0.58839,0.58839 -0.78452,0.58839 -1.63441,1.3729l-1.83054,1.43828c-0.06538,0.06538 -0.32688,0.26151 -0.32688,0.26151l-3.39957,2.35355c-1.17677,0.78452 -2.35355,1.43828 -3.59569,2.15742l-0.78452,0.39226l-1.50365,0.65376c-0.19613,0.06538 -0.45763,0.26151 -1.63441,0.65376c-2.09204,0.65376 -1.96129,0.13075 -1.96129,-0.06538c0,-0.45763 0.06538,-0.84989 0.19613,-1.1114c0.26151,-0.78452 0.45763,-0.84989 1.43828,-2.28817c0.65376,-0.91527 1.3729,-1.76516 2.15742,-2.61505c0.52301,-0.58839 0.71914,-0.78452 1.24215,-1.30753l0.52301,-0.39226c0.39226,-0.39226 1.04602,-0.78452 1.43828,-1.04602c0.13075,-0.13075 0.39226,-0.19613 0.52301,-0.32688c0.26151,0.32688 0.91527,0.52301 1.17677,0.13075z" data-paper-data="{&quot;glyphName&quot;:&quot;c&quot;,&quot;glyphIndex&quot;:14,&quot;lastGlyphOfWord&quot;:true,&quot;word&quot;:3}"/></g><g data-paper-data="{&quot;fillRule&quot;:&quot;evenodd&quot;,&quot;fillRuleOriginal&quot;:&quot;evenodd&quot;,&quot;isIcon&quot;:true,&quot;iconStyle&quot;:&quot;standalone&quot;,&quot;selectedEffects&quot;:{&quot;container&quot;:&quot;&quot;,&quot;transformation&quot;:&quot;&quot;,&quot;pattern&quot;:&quot;&quot;},&quot;bounds&quot;:{&quot;x&quot;:205.11722820393075,&quot;y&quot;:115.00000000000003,&quot;width&quot;:139.7655435921384,&quot;height&quot;:139.7655435921384},&quot;iconType&quot;:&quot;icon&quot;,&quot;rawIconId&quot;:&quot;997768&quot;,&quot;isDetailed&quot;:false,&quot;suitableAsStandaloneIcon&quot;:true}" fill-rule="evenodd"><g data-paper-data="{&quot;isPathIcon&quot;:true}"><path d="M205.11723,123.22797c0,-4.54099 3.69699,-8.22797 8.22897,-8.22797h32.87889v41.10787h-41.10787z" fill="#004976"/><path d="M205.11723,164.32884h41.12587c4.51699,0 8.20297,-3.67599 8.20297,-8.20297v-41.12587h41.10787v90.4227l-90.4367,0.013z" fill="#004976"/><path d="M344.88277,123.22797c0,-4.53099 -3.68699,-8.22797 -8.22897,-8.22797h-32.87889v90.4227c0,4.54599 -3.69399,8.23497 -8.23497,8.23497h-90.4227v32.87889c0,4.53199 3.68699,8.22897 8.22897,8.22897h123.3076c4.53199,0 8.22897,-3.68699 8.22897,-8.22897z" fill="#ff7f41"/></g></g></g></g></svg>